<?xml version="1.0" encoding="UTF-8"?>
<svg id="Layer_1" data-name="Layer 1" xmlns="http://www.w3.org/2000/svg" version="1.1" viewBox="0 0 701.3 125.8">
  <defs>
    <style>
      .cls-1 {
        fill: #ed1c24;
      }

      .cls-1, .cls-2 {
        stroke-width: 0px;
      }

      .cls-2 {
        fill: #fff;
      }
    </style>
  </defs>
  <path class="cls-2" d="M363.9,122.2c-17.3,0-34,0-50.7,0-.7,0-1.5-.6-2.6-1.1,0-1.3,0-2.7,0-4,0-18.1,0-36.3,0-54.4,0-2.8-.4-5.9-1.5-8.5-2.3-5.2-9.8-7.7-15.3-6-6.2,1.9-9.8,7.4-9.7,13.3.2,18.4,0,36.8,0,55.2,0,1.5,0,3,0,4.9-1.6.3-3,.6-4.3.6-14.8,0-29.6,0-44.4,0-1.1,0-2.1-.3-3.6-.4-.1-1.7-.3-3.1-.3-4.6,0-18.4,0-36.8,0-55.2,0-2.7-.3-5.1-1.8-7.5-3-4.9-7.5-6.8-12.9-6.6-5.6.3-9.6,3.5-11.6,8.7-.7,1.9-.8,4.1-.8,6.1,0,18.1,0,36.3,0,54.4,0,1.4,0,2.7,0,4.4-1.6.3-2.9.8-4.2.8-15.5,0-31,0-46.5,0-.7,0-1.3-.2-2.4-.3-.2-1.1-.6-2.1-.6-3.1,0-36.1,0-72.2,0-108.4,0-2.2.2-4.4.3-6.4,3.8-.9,49.2-.9,52.7,0,.4,1.3.8,2.7,1.3,4.5,10.7-5,21.7-6.6,33.1-3.8,11.1,2.7,21.5,7.1,29.7,15.9,2-1.7,3.7-3,5.3-4.5,11.5-9.9,25.1-14,40-12.4,18.3,1.9,33,10.3,42.7,26.5,5.5,9.1,8.5,18.8,8.5,29.4,0,19.2,0,38.5,0,57.7,0,1.3-.2,2.7-.4,4.7Z"/>
  <path class="cls-2" d="M142.1,3.5c.3,1,.6,1.8.6,2.5,0,38.4,0,76.8,0,115.5-1.5.3-2.5.6-3.6.6-15.4,0-30.7,0-46.1,0-.8,0-1.6-.2-2.8-.4-.2-1.5-.5-3-.5-4.4,0-5.5,0-11.1,0-16.6,0-1-.3-2-.4-3-.3,0-.6,0-.8-.1-1.4,2.9-2.9,5.8-4.3,8.8-2,4.2-4,8.5-5.8,12.8-.9,2.3-2.5,3.2-4.8,3.2-8,0-16.1.7-24-1.1-16.1-3.5-29-11.8-37.8-25.9-3.5-5.7-6.3-11.7-7.6-18.2-1.9-9.2-2-18.4,0-27.6,1.6-7.1,4.1-13.7,8.2-19.7C20.9,18.1,31.9,10.5,45.8,6.5c7.8-2.3,15.6-3.1,23.7-3.1,23.1.1,46.2,0,69.3,0,1.1,0,2.1.1,3.3.2ZM89.6,48.2c-5,0-9.1-.1-13.2,0-3,.1-6.1.3-9,1-4.7,1.1-8.1,4.2-9.7,8.8-2.3,6.9,0,13.3,5.6,17.8,2.7,2.2,5.9,3,9.3,3,5,0,9.9,0,14.9,0,.8,0,1.5-.4,2.5-.7-.3-9.9,0-19.6-.3-29.9Z"/>
  <path class="cls-2" d="M698.2,78.5c-1.5-.2-3.2-.1-4.7-.1-5.5,0-11.1,0-16.6,0-1,0-2-.3-3-.4,0-.3,0-.6-.1-.8,2.9-1.4,5.8-2.9,8.8-4.3,4.2-2,8.5-4,12.8-5.8,1.7-.7,2.6-1.7,3-3.1,0-19.3,0-38.6,0-57.9,0-.8-.4-1.6-.6-2.5-1.2,0-2.2-.2-3.3-.2-23.1,0-46.2.1-69.3,0-8.1,0-15.9.8-23.7,3.1-13.8,4-24.9,11.7-33.1,23.4-4.2,6-6.7,12.6-8.2,19.7-2.1,9.2-2,18.4,0,27.6,1.3,6.6,4.1,12.6,7.6,18.2,8.8,14.2,21.7,22.4,37.8,25.9,7.9,1.7,16,1,24,1.1,2.3,0,50.1-.1,65.4-.1,1,0,2.1-.4,3.6-.6,0-14.1,0-28.1,0-42.2,0-.3,0-.7-.1-1ZM643,78.8c-5,0-9.9,0-14.9,0-3.4,0-6.5-.9-9.3-3-5.6-4.5-7.8-10.9-5.6-17.8,1.5-4.6,4.9-7.7,9.7-8.8,2.9-.7,6-.9,9-1,4.1-.2,8.3,0,13.2,0,.4,10.3,0,20,.3,29.9-1,.3-1.7.7-2.5.7Z"/>
  <path class="cls-2" d="M433.6,3.8c1.8-.2,3.1-.4,4.4-.4,14.5,0,29.1,0,43.6,0,.7,0,1.4,0,2.1,0,2.5.2,3.4,1.1,3.4,3.7,0,1.1,0,5.3.4,7,19.4-13.2,39.8-12.9,60.7-6.7,6.6,2,12.7,5.1,18.2,9.9-10.7,13.4-20.6,27.2-31.4,40.6-1.9-1.7-3.2-3.1-4.7-4.2-6.7-4.9-14.1-6.5-22.3-5.3-5.3.8-9.6,3.1-13.5,6.5-4.8,4.3-7.4,9.5-7.3,16,.1,15.1,0,30.2,0,45.3,0,1.4,0,2.8,0,4.7-1.4.4-2.7,1.1-4.1,1.2-15.4,0-30.7,0-46.1,0-1,0-2.1-.4-3.4-.6V3.8Z"/>
  <path class="cls-2" d="M373.3,67.7h51.8c.2.9.5,1.7.5,2.5,0,13.2,0,26.5,0,39.7,0,3.2,0,6.5,0,9.7,0,.6,0,1.3,0,2.1-1.6.2-2.9.5-4.3.5-15.1,0-30.2,0-45.2,0-.9,0-1.9-.1-2.4-.2-.4-.2-.5-.2-.6-.3,0,0-.2-.1-.2-.2-.1-.2-.3-.5-.3-.7,0-17.3,0-34.6,0-51.9,0-.3,0-.5.2-.8,0-.1.2-.2.5-.5Z"/>
  <path class="cls-1" d="M373.3,3.8h51.8c.2.9.5,1.7.5,2.5,0,13.3,0,26.5,0,39.8,0,3.3,0,6.5,0,9.8,0,.6,0,1.3,0,2.1-1.6.2-2.9.5-4.3.5-15.1,0-30.2,0-45.2,0-.9,0-1.9-.1-2.4-.2-.4-.2-.5-.2-.6-.3,0,0-.2-.1-.2-.2-.1-.2-.3-.5-.3-.7,0-17.4,0-34.7,0-52.1,0-.3,0-.5.2-.8,0-.1.2-.2.5-.5Z"/>
</svg>